<svg version="1.1" id="Layer_1" xmlns="http://www.w3.org/2000/svg" xmlns:xlink="http://www.w3.org/1999/xlink" x="0px" y="0px"
	 width="100%" viewBox="0 0 225 225" enable-background="new 0 0 225 225" xml:space="preserve">
<path fill="#000000" opacity="1.000000" stroke="none" 
	d="
M114.000000,226.000000 
	C76.000000,226.000000 38.500004,226.000000 1.000005,226.000000 
	C1.000003,151.000000 1.000003,76.000015 1.000002,1.000015 
	C75.999992,1.000010 150.999985,1.000010 225.999969,1.000005 
	C225.999985,75.999985 225.999985,150.999969 226.000000,225.999969 
	C188.833328,226.000000 151.666672,226.000000 114.000000,226.000000 
M99.067604,96.931107 
	C99.067604,96.931107 99.240883,96.916534 99.022896,96.384834 
	C98.695175,96.202576 98.367462,96.020317 97.809105,95.219070 
	C95.144936,92.470467 92.480759,89.721870 89.940582,86.077400 
	C89.940582,83.806870 89.940582,81.536346 89.940582,79.341263 
	C86.040009,79.341263 82.657196,79.341263 79.378464,79.341263 
	C79.378464,102.448303 79.378464,125.194328 79.378464,148.057587 
	C83.010948,148.057587 86.390854,148.057587 90.231224,148.057587 
	C90.231224,138.143555 90.231224,128.579193 90.231224,119.221512 
	C94.482025,119.221512 98.262428,119.221512 102.511566,119.221512 
	C102.511566,129.019516 102.511566,138.565857 102.511566,148.152084 
	C106.262215,148.152084 109.529396,148.152084 113.248390,148.152084 
	C113.248390,137.687180 113.248390,127.475822 113.248390,117.264465 
	C114.158974,122.407860 114.013725,127.546455 114.194092,132.673599 
	C114.444702,139.797195 117.812309,145.190033 124.431229,147.872147 
	C130.689240,150.408035 136.796890,149.850937 142.648193,144.869492 
	C146.781525,145.730942 144.028015,142.147720 145.722336,140.625977 
	C146.685196,134.878113 147.648071,129.130264 148.669952,123.030075 
	C143.964325,123.030075 140.542770,123.030075 136.861008,123.030075 
	C136.861008,126.711159 136.861008,130.179596 136.137344,133.848618 
	C135.470245,134.566696 134.803146,135.284760 133.922791,136.785370 
	C133.624939,137.146255 133.388138,137.735565 133.020111,137.833939 
	C127.039558,139.432663 124.505089,136.329788 125.694557,128.401947 
	C126.910530,129.349777 128.126495,130.297607 129.342468,131.245438 
	C129.682236,130.889450 130.021988,130.533463 130.361755,130.177475 
	C128.457413,127.474403 126.553062,124.771332 124.849838,121.141785 
	C124.849373,112.500061 124.917068,103.857567 124.818100,95.216972 
	C124.772469,91.233063 126.480957,88.598511 130.429443,88.429047 
	C134.688583,88.246262 136.616425,91.063377 136.762451,95.118179 
	C136.849945,97.547844 136.778503,99.983231 136.778503,102.228050 
	C140.822311,102.228050 144.224457,102.228050 147.817001,102.228050 
	C147.817001,99.197922 147.958313,96.536583 147.791519,93.894691 
	C147.201141,84.542900 139.985184,77.727196 130.868668,77.789818 
	C121.787781,77.852196 114.614761,84.800095 114.192970,94.150589 
	C113.998459,98.462776 114.218826,102.792534 114.102402,107.110313 
	C114.077271,108.042458 113.412811,108.957359 113.027222,108.958153 
	C113.027222,98.922211 113.027222,88.886269 113.027222,78.842285 
	C109.167511,78.842285 105.918053,78.842285 102.265373,78.842285 
	C102.265373,84.546280 102.349884,89.982193 102.175476,95.409775 
	C102.148903,96.236534 100.922829,97.024750 100.199158,97.904045 
	C100.199158,97.904045 100.286568,97.883728 100.066299,97.342232 
	C99.737076,97.147339 99.407852,96.952454 99.067604,96.931107 
z"/>
<path fill="#F4F4F4" opacity="1.000000" stroke="none" 
	d="
M141.965836,144.890305 
	C136.796890,149.850937 130.689240,150.408035 124.431229,147.872147 
	C117.812309,145.190033 114.444702,139.797195 114.194092,132.673599 
	C114.013725,127.546455 114.158974,122.407860 113.248390,117.264465 
	C113.248390,127.475822 113.248390,137.687180 113.248390,148.152084 
	C109.529396,148.152084 106.262215,148.152084 102.511566,148.152084 
	C102.511566,138.565857 102.511566,129.019516 102.511566,119.221512 
	C98.262428,119.221512 94.482025,119.221512 90.231224,119.221512 
	C90.231224,128.579193 90.231224,138.143555 90.231224,148.057587 
	C86.390854,148.057587 83.010948,148.057587 79.378464,148.057587 
	C79.378464,125.194328 79.378464,102.448303 79.378464,79.341263 
	C82.657196,79.341263 86.040009,79.341263 89.940582,79.341263 
	C89.940582,81.536346 89.940582,83.806870 89.544250,86.542038 
	C88.751427,87.795677 87.884911,88.712006 88.056923,89.347015 
	C88.408043,90.643234 89.318161,91.788040 89.967407,93.462463 
	C89.936806,98.638771 89.936806,103.347824 89.936806,108.154396 
	C93.565010,108.154396 96.569016,108.447273 99.462730,108.010101 
	C100.618668,107.835464 101.531265,106.050133 102.787735,105.075104 
	C103.363335,105.134239 103.675224,105.223412 104.163040,105.658340 
	C106.835030,108.322762 109.300484,110.748573 112.408203,113.806320 
	C112.748520,111.700943 112.895676,110.790573 113.042831,109.880203 
	C113.412811,108.957359 114.077271,108.042458 114.102402,107.110313 
	C114.218826,102.792534 113.998459,98.462776 114.192970,94.150589 
	C114.614761,84.800095 121.787781,77.852196 130.868668,77.789818 
	C139.985184,77.727196 147.201141,84.542900 147.791519,93.894691 
	C147.958313,96.536583 147.817001,99.197922 147.817001,102.228050 
	C144.224457,102.228050 140.822311,102.228050 136.778503,102.228050 
	C136.778503,99.983231 136.849945,97.547844 136.762451,95.118179 
	C136.616425,91.063377 134.688583,88.246262 130.429443,88.429047 
	C126.480957,88.598511 124.772469,91.233063 124.818100,95.216972 
	C124.917068,103.857567 124.849373,112.500061 124.434883,121.520866 
	C121.066154,119.307060 118.112381,116.714172 115.158607,114.121284 
	C114.940254,114.351334 114.721901,114.581390 114.503540,114.811440 
	C118.019966,119.251823 121.536392,123.692200 125.052818,128.132584 
	C124.505089,136.329788 127.039558,139.432663 133.020111,137.833939 
	C133.388138,137.735565 133.624939,137.146255 134.354507,136.452667 
	C137.179428,139.043427 139.572632,141.966858 141.965836,144.890305 
z"/>
<path fill="#EDEDED" opacity="1.000000" stroke="none" 
	d="
M113.035027,109.419174 
	C112.895676,110.790573 112.748520,111.700943 112.408203,113.806320 
	C109.300484,110.748573 106.835030,108.322762 104.241791,105.255692 
	C102.826523,102.353218 101.539040,100.092003 100.251556,97.830788 
	C100.922829,97.024750 102.148903,96.236534 102.175476,95.409775 
	C102.349884,89.982193 102.265373,84.546280 102.265373,78.842285 
	C105.918053,78.842285 109.167511,78.842285 113.027222,78.842285 
	C113.027222,88.886269 113.027222,98.922211 113.035027,109.419174 
z"/>
<path fill="#F5F5F5" opacity="1.000000" stroke="none" 
	d="
M136.861008,133.648026 
	C136.861008,130.179596 136.861008,126.711159 136.861008,123.030075 
	C140.542770,123.030075 143.964325,123.030075 148.669952,123.030075 
	C147.648071,129.130264 146.685196,134.878113 145.045303,140.821198 
	C141.865845,138.560303 139.363434,136.104156 136.861008,133.648026 
z"/>
<path fill="#D6D6D6" opacity="1.000000" stroke="none" 
	d="
M100.225357,97.867416 
	C101.539040,100.092003 102.826523,102.353218 104.035248,105.017082 
	C103.675224,105.223412 103.363335,105.134239 102.486359,104.873322 
	C97.967255,100.728020 93.982635,96.861618 89.998016,92.995209 
	C89.318161,91.788040 88.408043,90.643234 88.056923,89.347015 
	C87.884911,88.712006 88.751427,87.795677 89.482254,86.989967 
	C92.480759,89.721870 95.144936,92.470467 98.057556,95.773926 
	C98.617638,96.524696 98.929260,96.720612 99.240883,96.916534 
	C99.240883,96.916534 99.067604,96.931107 99.192810,97.108994 
	C99.640862,97.485825 99.963715,97.684776 100.286568,97.883728 
	C100.286568,97.883728 100.199158,97.904045 100.225357,97.867416 
z"/>
<path fill="#F0F0F0" opacity="1.000000" stroke="none" 
	d="
M125.373688,128.267273 
	C121.536392,123.692200 118.019966,119.251823 114.503540,114.811440 
	C114.721901,114.581390 114.940254,114.351334 115.158607,114.121284 
	C118.112381,116.714172 121.066154,119.307060 124.334320,121.984100 
	C126.553062,124.771332 128.457413,127.474403 130.361755,130.177475 
	C130.021988,130.533463 129.682236,130.889450 129.342468,131.245438 
	C128.126495,130.297607 126.910530,129.349777 125.373688,128.267273 
z"/>
<path fill="#F0F0F0" opacity="1.000000" stroke="none" 
	d="
M136.499176,133.748322 
	C139.363434,136.104156 141.865845,138.560303 144.742584,141.030380 
	C144.028015,142.147720 146.781525,145.730942 142.307007,144.879898 
	C139.572632,141.966858 137.179428,139.043427 134.461136,136.061401 
	C134.803146,135.284760 135.470245,134.566696 136.499176,133.748322 
z"/>
<path fill="#EDEDED" opacity="1.000000" stroke="none" 
	d="
M99.131889,96.650681 
	C98.929260,96.720612 98.617638,96.524696 98.172882,96.083420 
	C98.367462,96.020317 98.695175,96.202576 99.131889,96.650681 
z"/>
<path fill="#EDEDED" opacity="1.000000" stroke="none" 
	d="
M100.176437,97.612976 
	C99.963715,97.684776 99.640862,97.485825 99.198318,97.022217 
	C99.407852,96.952454 99.737076,97.147339 100.176437,97.612976 
z"/>
<path fill="#090909" opacity="1.000000" stroke="none" 
	d="
M89.967407,93.462463 
	C93.982635,96.861618 97.967255,100.728020 102.253250,104.796219 
	C101.531265,106.050133 100.618668,107.835464 99.462730,108.010101 
	C96.569016,108.447273 93.565010,108.154396 89.936806,108.154396 
	C89.936806,103.347824 89.936806,98.638771 89.967407,93.462463 
z"/>
</svg>